<svg width="173" height="173" fill="none" xmlns="http://www.w3.org/2000/svg"><circle cx="86.5" cy="86.5" r="86.5" fill="#fff"/><g clip-path="url(#clip0)"><path d="M94.25 57.493h3.176c1.5 0 2.93.594 3.993 1.657a5.639 5.639 0 011.661 3.993v2.769c0 .59-.481 1.071-1.071 1.071s-1.071-.48-1.071-1.071v-2.769a3.5 3.5 0 00-1.03-2.481 3.52 3.52 0 00-2.482-1.039h-3.177a4.8 4.8 0 01-1.297 2.337 4.786 4.786 0 01-3.4 1.414h-9.117a1.07 1.07 0 010-2.138h9.118c.735 0 1.402-.303 1.887-.788a2.672 2.672 0 00.788-1.888 2.68 2.68 0 00-.788-1.891 2.66 2.66 0 00-1.887-.784h-2.417c-.635 0-1.096-.239-1.439-.619-.283-.315-.437-.69-.538-1.095a2.684 2.684 0 00-2.598-2.033h-9.094a2.66 2.66 0 00-1.64.562c-.587.457-.886 1.156-.991 1.592-.267 1.1-.384 1.593-1.944 1.593h-2.417A2.678 2.678 0 0063.8 58.56a2.68 2.68 0 002.676 2.676h9.117a1.07 1.07 0 010 2.138h-9.118a4.802 4.802 0 01-3.403-1.415 4.824 4.824 0 01-1.293-2.336h-3.177c-.966 0-1.843.4-2.481 1.039a3.502 3.502 0 00-1.035 2.481v46.592a1.07 1.07 0 01-2.138 0V63.143c0-1.556.634-2.97 1.66-3.993a5.63 5.63 0 013.994-1.657h3.177a4.842 4.842 0 011.293-2.336 4.816 4.816 0 013.403-1.41h2.3a4.829 4.829 0 011.737-2.724A4.803 4.803 0 0173.468 50h9.094a4.77 4.77 0 012.954 1.027c.91.71 1.451 1.608 1.738 2.72h2.3a4.8 4.8 0 013.399 1.41 4.816 4.816 0 011.297 2.336zm-25.253 55.633c.194.194.315.461.315.76a1.07 1.07 0 01-1.83.752l-2.344-2.344-2.349 2.348a1.07 1.07 0 01-1.516-1.511l2.353-2.353-2.352-2.348a1.071 1.071 0 011.515-1.512l2.349 2.349 2.352-2.349a1.064 1.064 0 011.511 0 1.071 1.071 0 010 1.512l-2.352 2.348 2.348 2.348zm7.542-3.488a1.069 1.069 0 110-2.138h19.15a1.07 1.07 0 011.07 1.072c0 .59-.477 1.066-1.07 1.066h-19.15zm0 4.422a1.07 1.07 0 110-2.138h13.996a1.07 1.07 0 010 2.138H76.539zm0-16.95a1.07 1.07 0 110-2.139h19.15a1.07 1.07 0 010 2.138h-19.15zm0 4.421a1.07 1.07 0 110-2.138h13.996a1.07 1.07 0 010 2.138H76.539zm0-16.95a1.07 1.07 0 110-2.139h19.15a1.07 1.07 0 011.07 1.071c0 .59-.477 1.067-1.07 1.067h-19.15zm0 4.42a1.07 1.07 0 110-2.138h13.996a1.07 1.07 0 010 2.138H76.539zm0-16.95a1.07 1.07 0 110-2.138h19.15a1.07 1.07 0 110 2.138h-19.15zm0 4.422a1.07 1.07 0 110-2.138h13.996c.59 0 1.067.477 1.067 1.067 0 .594-.477 1.07-1.067 1.07H76.539zm-7.51 18.05a1.07 1.07 0 011.512 0 1.07 1.07 0 010 1.511l-5.945 5.946a1.076 1.076 0 01-1.516 0l-3.346-3.347a1.07 1.07 0 010-1.512 1.076 1.076 0 011.515 0l2.59 2.591 5.19-5.19zm0-12.53a1.07 1.07 0 011.512 0 1.07 1.07 0 010 1.512l-5.945 5.946a1.07 1.07 0 01-1.516 0l-3.346-3.347a1.07 1.07 0 010-1.512 1.076 1.076 0 011.515 0l2.59 2.591 5.19-5.19zm0-12.528a1.07 1.07 0 011.512 0 1.07 1.07 0 010 1.511l-5.945 5.945a1.07 1.07 0 01-1.516 0l-3.346-3.346a1.07 1.07 0 010-1.512 1.076 1.076 0 011.515 0l2.59 2.591 5.19-5.19zm49.28 6.171v35.276h3.605V75.636h-3.605zm-2.142 35.276V75.636h-3.605v15.217c0 .59-.477 1.067-1.071 1.067-.59 0-1.067-.477-1.067-1.067V67.642c0-1.103.453-2.11 1.176-2.837a4.007 4.007 0 012.837-1.176h5.598c1.107 0 2.11.448 2.837 1.176a4.007 4.007 0 011.18 2.837v44.341c0 .274-.068.392-.198.618l-5.686 9.853c-.401.708-1.439.732-1.851.009l-5.687-9.846c-.129-.234-.206-.347-.206-.634V95.695c0-.59.477-1.067 1.067-1.067.594 0 1.071.477 1.071 1.067v15.217h3.605zm-2.829 2.138l3.9 6.753 3.9-6.753h-7.8zm6.697-47.284h-5.598c-.513 0-.982.21-1.322.55a1.872 1.872 0 00-.553 1.326v5.856h9.352v-5.856c0-.514-.21-.983-.554-1.326a1.868 1.868 0 00-1.325-.55zm-19.097 4.992a1.07 1.07 0 112.142 0v46.588c0 1.556-.638 2.97-1.661 3.997A5.642 5.642 0 0197.426 123H58.602a5.635 5.635 0 01-3.993-1.657 5.64 5.64 0 01-1.661-3.997v-2.769a1.07 1.07 0 012.138 0v2.769c0 .966.396 1.847 1.034 2.481a3.5 3.5 0 002.482 1.035h38.824a3.5 3.5 0 002.481-1.035 3.488 3.488 0 001.031-2.481V70.758z" fill="#003882"/></g><defs><clipPath id="clip0"><path fill="#fff" transform="translate(52 50)" d="M0 0h73v73H0z"/></clipPath></defs></svg>