<svg width="173" height="173" fill="none" xmlns="http://www.w3.org/2000/svg"><circle cx="86.5" cy="86.5" r="86.5" fill="#fff"/><path d="M117.817 84.145c-2.655-1.327-7.631-1.342-7.841-1.342a1.143 1.143 0 100 2.285c1.284 0 5.012.198 6.819 1.101a1.144 1.144 0 001.022-2.044z" fill="#B01C2E"/><path d="M123.513 100.412l-4.719-1.348a.48.48 0 01-.346-.458V97.03a8.63 8.63 0 001.093-.895 8.405 8.405 0 002.572-6.081V87.88l.457-.912a7.3 7.3 0 00.765-3.243v-5.888c0-.631-.512-1.143-1.143-1.143h-10.995c-3.998 0-7.251 3.253-7.251 7.251v.068c0 .931.221 1.864.637 2.697l.585 1.17v1.866a8.917 8.917 0 003.665 7.208v1.651c0 .255 0 .36-.943.63l-2.303.658-6.66-2.422a1.142 1.142 0 00-.312-.875l-2.128-2.236v-3.754a13.8 13.8 0 00.662-.577 13.41 13.41 0 004.225-9.749v-2.998a13.203 13.203 0 001.221-5.554V59.512c0-.631-.511-1.143-1.142-1.143H84.349c-6.019 0-10.916 4.897-10.916 10.916v2.444c0 1.922.411 3.79 1.222 5.554v2.579c0 4.271 1.9 8.12 4.887 10.656v3.842l-2.129 2.236c-.229.24-.335.56-.31.875l-7.03 2.556c-.51.185-.984.436-1.413.74l-1.104-.552c3.286-1.43 4.327-3.442 4.377-3.542.16-.321.16-.7 0-1.022-.824-1.647-.924-4.667-1.004-7.093a61.653 61.653 0 00-.1-2.25c-.39-5.48-4.556-9.614-9.691-9.614-5.136 0-9.302 4.133-9.692 9.614-.048.68-.073 1.442-.1 2.25-.08 2.426-.18 5.446-1.004 7.093-.16.322-.16.7 0 1.022.05.1 1.09 2.108 4.382 3.54l-3.066 1.533a4.781 4.781 0 00-2.658 4.3v8.441a1.143 1.143 0 102.285 0v-8.441c0-.962.534-1.826 1.394-2.256l3.819-1.909 1.328 1.262a4.795 4.795 0 003.312 1.323 4.795 4.795 0 003.311-1.323l1.328-1.262 1.245.622a6.016 6.016 0 00-.919 3.19v8.794a1.142 1.142 0 102.285 0v-8.794c0-1.568.99-2.982 2.465-3.518l7.412-2.695 3.085 4.628a2.354 2.354 0 001.97 1.053c.625 0 1.222-.246 1.67-.693l1.882-1.882v11.902a1.142 1.142 0 002.285 0v-11.902l1.882 1.882a2.354 2.354 0 001.905.681 2.354 2.354 0 001.734-1.041l3.086-4.628 7.412 2.695a3.755 3.755 0 012.464 3.519v8.794a1.142 1.142 0 002.285 0v-8.794a6.04 6.04 0 00-1.69-4.181l.283-.08c.284-.082.673-.193 1.063-.384l2.917 2.917v10.522a1.142 1.142 0 002.285 0v-10.522l2.897-2.897c.154.078.316.144.486.193l4.719 1.348a2.534 2.534 0 011.83 2.426v9.452a1.142 1.142 0 102.285 0v-9.452a4.83 4.83 0 00-3.487-4.624zM56.33 98.394c-2.137-.769-3.21-1.794-3.667-2.354.312-.816.514-1.75.651-2.736a8.52 8.52 0 003.016 3.72v1.37zm6.546 3.093a2.521 2.521 0 01-3.476-.001l-1.063-1.009c.18-.336.278-.717.278-1.116v-1.218a8.499 8.499 0 005.045 0v1.218c0 .399.099.78.278 1.116l-1.063 1.01zm-1.738-5.246a6.194 6.194 0 01-6.187-6.187 1.143 1.143 0 00-1.33-1.126l.01-.294c.025-.785.05-1.528.095-2.164.146-2.053.966-3.945 2.31-5.327a7.062 7.062 0 015.102-2.163c1.934 0 3.746.768 5.102 2.163 1.344 1.382 2.164 3.274 2.31 5.327.045.636.07 1.378.096 2.164l.007.204c-1.244-1.916-3.163-3.327-5.644-4.124-2.292-.736-4.263-.691-4.346-.689-.3.008-.583.134-.79.35l-2.062 2.137a1.143 1.143 0 101.645 1.586l1.715-1.779c1.477.073 6.23.625 8.078 4.695a6.173 6.173 0 01-6.11 5.227zm4.807 2.157v-1.362a8.453 8.453 0 003.017-3.725c.137.984.339 1.916.65 2.73-.455.554-1.532 1.588-3.667 2.357zM76.94 79.862v-2.835a1.14 1.14 0 00-.113-.497 10.959 10.959 0 01-1.108-4.801v-2.444c0-4.759 3.872-8.63 8.63-8.63h15.961v11.074a10.96 10.96 0 01-1.108 4.801 1.143 1.143 0 00-.113.497v3.254c0 3.094-1.244 5.964-3.503 8.08-.282.265-.575.513-.877.744l-.02.014c-2.116 1.606-4.707 2.387-7.414 2.212-5.795-.375-10.335-5.413-10.335-11.47zm6.434 22.99c-.008.008-.027.027-.064.023a.072.072 0 01-.058-.035l-3.553-5.33 1.143-1.202 5.39 3.685-2.858 2.859zm4.64-4.409l-6.187-4.23v-2.132a12.866 12.866 0 006.2 1.559c2.184 0 4.287-.522 6.175-1.514v2.088l-6.188 4.229zm4.763 4.397a.07.07 0 01-.058.035c-.037.005-.056-.015-.064-.022l-2.859-2.86 5.391-3.684 1.144 1.201-3.554 5.33zm20.864-.964l-2.593-2.592a3.1 3.1 0 00.07-.68v-.481a8.015 8.015 0 002.526.403c.867 0 1.714-.13 2.519-.38v.46c0 .227.029.45.083.665l-2.605 2.605zm4.308-7.381a6.14 6.14 0 01-4.499 1.743c-3.307-.099-5.997-3.011-5.997-6.491V87.61c0-.178-.041-.353-.12-.511l-.706-1.412a3.757 3.757 0 01-.395-1.674v-.069a4.97 4.97 0 014.965-4.965h9.853v4.745a4.99 4.99 0 01-.524 2.221l-.577 1.154a1.147 1.147 0 00-.121.51v2.444a6.137 6.137 0 01-1.879 4.44z" fill="#B01C2E"/><path d="M120.971 106.015c-.631 0-1.143.511-1.143 1.142v7.33a1.143 1.143 0 002.285 0v-7.33c0-.631-.511-1.142-1.142-1.142zm-65.941 1.51c-.632 0-1.143.511-1.143 1.142v5.82a1.143 1.143 0 102.285 0v-5.82c0-.63-.512-1.142-1.143-1.142zm42.344-35.382c-4.321-4.322-13.363-3.496-17.05-2.94a2.346 2.346 0 00-2.004 2.337v2.632a1.143 1.143 0 002.286 0V71.54c0-.04.025-.072.06-.078 1.472-.222 4.394-.564 7.422-.362 3.563.237 6.144 1.132 7.67 2.658a1.143 1.143 0 001.616-1.615zm-22.798 36.315c-.63 0-1.142.512-1.142 1.143v4.886a1.143 1.143 0 102.285 0v-4.886c0-.631-.512-1.143-1.143-1.143zm26.877 0c-.631 0-1.143.512-1.143 1.143v4.886a1.143 1.143 0 002.285 0v-4.886c0-.631-.511-1.143-1.142-1.143z" fill="#B01C2E"/></svg>