<svg width="173" height="173" fill="none" xmlns="http://www.w3.org/2000/svg"><circle cx="86.5" cy="86.5" r="86.5" fill="#fff"/><path d="M126.569 75.764c-2.868-10.703-9.732-19.648-19.327-25.188-9.596-5.54-20.775-7.012-31.478-4.145-10.703 2.868-19.648 9.732-25.188 19.327-5.54 9.596-7.013 20.775-4.145 31.478 2.868 10.702 9.732 19.648 19.327 25.188C72.15 126.115 79.244 128 86.433 128c3.602 0 7.23-.474 10.803-1.431 10.702-2.868 19.648-9.732 25.188-19.327 5.54-9.596 7.012-20.775 4.145-31.478zm-6.247 30.264c-5.216 9.034-13.638 15.497-23.714 18.196-10.077 2.701-20.602 1.315-29.636-3.902-9.035-5.216-15.497-13.638-18.197-23.715-2.7-10.076-1.314-20.6 3.902-29.635s13.638-15.497 23.715-18.197a39.262 39.262 0 0110.171-1.347c6.767 0 13.447 1.775 19.465 5.25 9.034 5.215 15.497 13.637 18.196 23.714 2.7 10.077 1.315 20.602-3.902 29.636z" fill="#8F3382"/><path d="M108.433 61.148a2.876 2.876 0 00-2.366-.661 2.878 2.878 0 00-2.018 1.402l-5.443 9.428c-.097-.003-.194-.007-.292-.007H92.22l7.061-12.23c.43-.743.506-1.631.21-2.437a2.88 2.88 0 00-1.739-1.723 33.226 33.226 0 00-11.736-1.945 1.213 1.213 0 00.019 2.426h.018c3.711-.055 7.375.55 10.883 1.804.176.063.249.2.277.275a.452.452 0 01-.034.387l-7.792 13.496a5.67 5.67 0 00-2.322.854l-2.164-.878a10.236 10.236 0 00-3.846-.746h-3.938a10.23 10.23 0 00-7.161 2.904l-.614.596-8.842-4.705c4.183-6.365 10.493-10.925 17.953-12.924.86-.23 1.751-.428 2.646-.587a1.214 1.214 0 00-.424-2.39 34.11 34.11 0 00-2.85.633c-8.678 2.325-15.916 7.866-20.383 15.603-4.467 7.736-5.647 16.776-3.322 25.453a33.334 33.334 0 0010.656 16.858 2.881 2.881 0 002.362.644 2.878 2.878 0 002.005-1.4l6.733-11.66a1.213 1.213 0 00-2.102-1.214l-1.154 1.999-2.954-2.256a8.162 8.162 0 01-2.554-3.289l-.66-1.555a1.213 1.213 0 00-.484-.56L55.385 86.26a30.81 30.81 0 013.86-14.792l9.738 5.181a1.21 1.21 0 001.415-.2l1.248-1.212a7.815 7.815 0 015.471-2.218h3.938c1.011 0 2 .192 2.938.57l.701.283-4.195 2.95a7.317 7.317 0 00-3.109 5.56l-.145 2.337a5.072 5.072 0 001.946 4.303l-2.831 4.903a1.213 1.213 0 002.101 1.214l2.963-5.131c.284.05.573.076.865.076 2.38 0 4.46-1.69 4.947-4.02l.286-1.369 3.77-.712-17.332 30.019a2.875 2.875 0 00-.206 2.448 2.875 2.875 0 001.756 1.719 33.307 33.307 0 0010.968 1.86c2.912 0 5.833-.383 8.698-1.15a33.49 33.49 0 0019.186-13.745 1.213 1.213 0 10-2.018-1.349 31.065 31.065 0 01-17.796 12.75 30.925 30.925 0 01-18.24-.658.45.45 0 01-.279-.273.453.453 0 01.033-.389l3.658-6.336 5.659 4.321a3.81 3.81 0 002.323.784 3.831 3.831 0 002.895-1.313 3.8 3.8 0 00.88-1.861 3.978 3.978 0 003.907-1.048 3.958 3.958 0 00.97-1.626 4.33 4.33 0 001.757.371l.096-.001a4.308 4.308 0 003.046-1.343 4.308 4.308 0 001.131-2.224c.462.158.945.24 1.429.24a4.373 4.373 0 003.232-1.411 4.362 4.362 0 001.013-4.079l3.243-3.101a12.112 12.112 0 003.32-5.563l2.839-1.674a31.018 31.018 0 01-2.67 10.053 1.213 1.213 0 002.208 1.009 33.572 33.572 0 001.882-22.59 33.349 33.349 0 00-10.447-16.676zM64.369 94.61l.51 1.198a10.597 10.597 0 003.313 4.268l3.204 2.446-4.354 7.542a.448.448 0 01-.318.222.453.453 0 01-.377-.102 30.911 30.911 0 01-9.882-15.637 31.733 31.733 0 01-.956-5.364l8.86 5.427zm41.782-31.508a.452.452 0 01.32-.222.454.454 0 01.376.104 30.894 30.894 0 016.287 7.454l-6.217 4.331a.84.84 0 01-1.075-.095l-.421-.42a10 10 0 00-4.247-2.532l4.977-8.62zm-.895 39.027a1.963 1.963 0 01-2.73.145l-5.684-5.012-.029-.026-.775-.683a1.213 1.213 0 10-1.605 1.82l.774.682v.001l4.172 3.679c.393.347.622.827.645 1.352a1.896 1.896 0 01-.527 1.401c-.353.371-.83.581-1.342.592a1.897 1.897 0 01-1.366-.533l-1.207-1.161a3.885 3.885 0 00-.343-.357l-.646-.594-2.531-2.433a1.213 1.213 0 10-1.682 1.749l3.41 3.279c.194.257.303.567.312.897a1.56 1.56 0 01-2.532 1.264l-.019-.014-2.182-1.663-1.761-1.541a1.212 1.212 0 10-1.599 1.826l2.624 2.296c.582.51.642 1.4.134 1.983a1.41 1.41 0 01-1.915.195l-5.908-4.512L92.39 86.936l12.791 12.476c.759.741.792 1.934.075 2.717zm7.695-12.937c-.287.17-.492.45-.566.776a9.7 9.7 0 01-2.761 4.867l-2.859 2.733-13.123-12.801.795-1.377.787-.149a1.213 1.213 0 10-.45-2.384l-8.499 1.604a1.213 1.213 0 00-.963.945l-.451 2.163a2.638 2.638 0 01-2.572 2.09 2.602 2.602 0 01-1.913-.828 2.601 2.601 0 01-.708-1.962l.145-2.337a4.902 4.902 0 012.082-3.724l6.362-4.474a3.268 3.268 0 011.89-.598h8.167c2.037 0 3.951.793 5.391 2.233l.421.422a3.265 3.265 0 004.179.37l6.005-4.184a31.216 31.216 0 012.226 5.875 31.076 31.076 0 011.056 8.004l-4.641 2.736z" fill="#8F3382"/></svg>