<svg width="40" height="40" fill="none" xmlns="http://www.w3.org/2000/svg"><circle cx="20" cy="20" r="19.5" fill="#fff" stroke="#E6E9EC"/><g clip-path="url(#clip0)"><path d="M16.109 21.453h1.888v6.984c0 .31.252.562.563.562l3.005.001a.563.563 0 00.563-.563v-6.984h1.79a.563.563 0 00.558-.492l.373-3a.563.563 0 00-.558-.633h-2.163c.084-1.853-.327-2.401.879-2.401.816-.098 2.103.316 2.103-.563v-2.682a.562.562 0 00-.486-.558 20.181 20.181 0 00-2.32-.124c-5.258 0-4.176 5.829-4.306 6.328h-1.89a.563.563 0 00-.562.562v3c0 .31.252.563.563.563zm.562-3h1.889c.31 0 .562-.252.562-.562v-2.363c0-2.162 1.16-3.402 3.18-3.402.659 0 1.265.032 1.682.065v1.612c-.302.153-2.982-.663-2.982 2.022v2.067c0 .31.252.562.562.562h2.09l-.234 1.875h-1.856a.563.563 0 00-.562.563v6.983h-1.879v-6.984a.563.563 0 00-.562-.563h-1.89v-1.875z" fill="#2D88FF"/></g><defs><clipPath id="clip0"><path fill="#fff" transform="translate(11 11)" d="M0 0h18v18H0z"/></clipPath></defs></svg>