<svg width="40" height="40" fill="none" xmlns="http://www.w3.org/2000/svg"><circle cx="20" cy="20" r="19.5" fill="#fff" stroke="#E6E9EC"/><path d="M14.563 29h10.874A3.567 3.567 0 0029 25.437V14.563A3.567 3.567 0 0025.437 11H14.563A3.567 3.567 0 0011 14.563v10.874A3.567 3.567 0 0014.563 29zm-2.438-14.438a2.44 2.44 0 012.438-2.437h10.874a2.44 2.44 0 012.438 2.438v10.874a2.44 2.44 0 01-2.438 2.438H14.563a2.44 2.44 0 01-2.437-2.438V14.563z" fill="url(#paint0_linear)"/><path d="M20 24.598A4.603 4.603 0 0024.597 20 4.603 4.603 0 0020 15.402 4.603 4.603 0 0015.402 20 4.603 4.603 0 0020 24.598zm0-8.07A3.476 3.476 0 0123.472 20 3.476 3.476 0 0120 23.473 3.476 3.476 0 0116.527 20 3.476 3.476 0 0120 16.527z" fill="url(#paint1_linear)"/><path d="M24.769 16.521c.74 0 1.296-.555 1.296-1.29 0-.768-.586-1.291-1.296-1.291-.74 0-1.296.555-1.296 1.29 0 .766.583 1.291 1.296 1.291zm.132-1.414c.237.21-.303.463-.303.125 0-.203.275-.15.303-.125z" fill="url(#paint2_linear)"/><defs><linearGradient id="paint0_linear" x1="20" y1="11" x2="20" y2="29" gradientUnits="userSpaceOnUse"><stop stop-color="#BC2384"/><stop offset="1" stop-color="#F37156"/></linearGradient><linearGradient id="paint1_linear" x1="20" y1="15.402" x2="20" y2="24.598" gradientUnits="userSpaceOnUse"><stop stop-color="#BC2384"/><stop offset="1" stop-color="#F37156"/></linearGradient><linearGradient id="paint2_linear" x1="24.769" y1="13.94" x2="24.769" y2="16.521" gradientUnits="userSpaceOnUse"><stop stop-color="#BC2384"/><stop offset="1" stop-color="#F37156"/></linearGradient></defs></svg>