<svg width="40" height="40" fill="none" xmlns="http://www.w3.org/2000/svg"><circle cx="20" cy="20" r="19.5" fill="#fff" stroke="#E6E9EC"/><g clip-path="url(#clip0)"><path d="M20.12 26.25c2.894 0 1.863-1.832 2.086-2.358-.003-.394-.007-.772.006-1.002.184.052.616.27 1.51 1.14 1.379 1.39 1.731 2.22 2.845 2.22h2.051c.65 0 .989-.27 1.158-.495.163-.218.323-.602.148-1.198-.457-1.437-3.126-3.918-3.291-4.18.024-.048.065-.112.085-.145h-.001c.526-.696 2.536-3.708 2.832-4.913l.002-.007c.16-.55.013-.906-.138-1.108-.229-.302-.592-.454-1.083-.454h-2.05c-.688 0-1.208.346-1.472.977-.44 1.12-1.679 3.425-2.607 4.241a53.45 53.45 0 01.006-2.694c.03-1.279.126-2.524-1.201-2.524h-3.224c-.831 0-1.627.908-.765 1.987.753.945.27 1.471.433 4.093-.633-.68-1.76-2.513-2.557-4.857-.223-.635-.561-1.222-1.514-1.222h-2.05c-.832 0-1.329.453-1.329 1.212 0 1.705 3.774 11.287 10.12 11.287zM13.38 15c.18 0 .198 0 .332.382.816 2.402 2.646 5.957 3.983 5.957 1.004 0 1.004-1.029 1.004-1.416v-3.085c-.056-1.021-.427-1.53-.672-1.838l2.924.003c.002.014-.017 3.413.008 4.236 0 1.17.928 1.84 2.378.373 1.529-1.726 2.586-4.306 2.629-4.411.062-.15.116-.201.313-.201h2.059l-.001.008c-.188.875-2.039 3.663-2.658 4.529l-.028.041c-.273.445-.494.937.037 1.629h.001c.049.058.174.195.358.385.57.588 2.525 2.6 2.698 3.4-.115.018-.24.005-2.178.009-.412 0-.735-.617-1.965-1.859-1.107-1.076-1.825-1.516-2.48-1.516-1.27 0-1.177 1.03-1.165 2.277.004 1.352-.005.925.005 1.01-.075.029-.287.087-.841.087-5.288 0-8.731-8.392-8.863-9.997.045-.004.676-.001 2.121-.002z" fill="#4A76A8"/></g><defs><clipPath id="clip0"><path fill="#fff" transform="translate(10 10)" d="M0 0h20v20H0z"/></clipPath></defs></svg>