<svg width="40" height="40" fill="none" xmlns="http://www.w3.org/2000/svg"><circle cx="20" cy="20" r="19.5" fill="#fff" stroke="#E6E9EC"/><g clip-path="url(#clip0)" fill="red"><path d="M18.282 16.547a.626.626 0 00-.945.536v5.834c0 .487.532.782.945.537l4.891-2.912a.626.626 0 00.001-1.075l-4.892-2.92zm.305 5.27v-3.633l3.046 1.82-3.046 1.813z"/><path d="M26.587 12.726c-3.878-.576-9.294-.576-13.174 0-1.551.23-2.774 1.448-3.04 3.03-.497 2.936-.497 5.553 0 8.488.266 1.583 1.489 2.8 3.04 3.03 1.944.288 4.27.433 6.596.433 2.322 0 4.643-.144 6.578-.432 1.55-.23 2.772-1.447 3.04-3.03.497-2.936.497-5.554 0-8.49-.266-1.58-1.489-2.8-3.04-3.03zm1.808 11.31c-.177 1.047-.977 1.852-1.992 2.002-3.765.56-9.031.56-12.806 0-1.015-.151-1.816-.956-1.993-2.002-.478-2.829-.478-5.243 0-8.073.178-1.046.978-1.85 1.994-2.001 1.884-.28 4.144-.42 6.401-.42 2.26 0 4.518.14 6.404.42 1.015.15 1.815.955 1.992 2.001.478 2.83.478 5.245 0 8.074z"/></g><defs><clipPath id="clip0"><path fill="#fff" transform="translate(10 10)" d="M0 0h20v20H0z"/></clipPath></defs></svg>